<?xml version="1.0" encoding="iso-8859-1"?>
<!-- Generator: Adobe Illustrator 19.0.0, SVG Export Plug-In . SVG Version: 6.00 Build 0)  -->
<svg version="1.1" id="Layer_1" xmlns="http://www.w3.org/2000/svg" xmlns:xlink="http://www.w3.org/1999/xlink" x="0px" y="0px"
	 viewBox="0 0 512 512" style="enable-background:new 0 0 512 512;" xml:space="preserve">
<g>
	<g>
		<path d="M492.886,216.88v-8.565c0-11.461-9.323-20.784-20.784-20.784h-6.522c-4.199,0-7.604,3.405-7.604,7.604
			s3.405,7.604,7.604,7.604h6.522c3.075,0,5.576,2.501,5.576,5.576v32.169c0,3.075-2.501,5.576-5.576,5.576h-6.539l-11.775-46.031
			c-5.435-21.245-20.472-38.557-39.892-47.389v-9.579c0-18.168-14.782-32.95-32.951-32.95h-39.441c-4.199,0-7.604,3.405-7.604,7.604
			s3.405,7.604,7.604,7.604h39.441c9.783,0,17.743,7.96,17.743,17.743v4.64c-1.936-0.394-3.896-0.717-5.88-0.948
			c-89.426-10.332-90.734-10.332-92.713-10.332h-88.187c-1.979,0-3.287,0-92.746,10.337c-2.58,0.301-5.122,0.75-7.62,1.326v-5.023
			c0-9.783,7.96-17.743,17.743-17.743h152.401c4.199,0,7.604-3.405,7.604-7.604c0-4.199-3.405-7.604-7.604-7.604H129.284
			c-18.168,0-32.951,14.782-32.951,32.951v10.41C81.69,160.618,69.704,172.65,62.71,187.53H39.898
			c-11.461,0-20.784,9.323-20.784,20.784v8.565C8.434,217.734,0,226.682,0,237.579v43.1c0,11.461,9.323,20.784,20.784,20.784h10.139
			c4.199,0,7.604-3.405,7.604-7.604c0-4.199-3.405-7.604-7.604-7.604H20.784c-3.075,0-5.576-2.501-5.576-5.576v-43.1
			c0-2.493,1.644-4.609,3.906-5.32v8.224c0,11.461,9.323,20.784,20.784,20.784h3.319c-3.439,29.195,11.305,57.695,38.03,71.591
			l47.979,24.948c10.138,5.271,21.536,8.059,32.97,8.06c4.162,0,8.279-0.369,12.323-1.075l44.078,20.387
			c7.26,10.918,19.94,16.711,37.403,16.711c17.461,0,30.138-5.791,37.399-16.705l44.307-20.354c3.971,0.679,8.015,1.035,12.1,1.035
			c11.427,0,22.827-2.787,32.969-8.06l47.979-24.948c13.835-7.194,24.458-18.303,31.013-31.395h29.448
			c11.461,0,20.784-9.323,20.784-20.784v-43.099C512,226.682,503.566,217.734,492.886,216.88z M46.438,246.06h-6.538
			c-3.076,0-5.577-2.501-5.577-5.576v-32.169c0-3.075,2.501-5.576,5.576-5.576h17.621L46.438,246.06z M211.882,365.319l-16.496-7.63
			c2.41-1.266,11.002-6.979,16.715-10.985c-0.392,4.065-0.612,7.855-0.612,11.198C211.488,360.481,211.623,362.953,211.882,365.319z
			 M256,386.683c-20.539,0-29.303-8.608-29.303-28.783c0-5.401,0.723-13.062,2.134-21.773l24.15-8.076
			c3.309-1.269,4.839-0.515,5.343-0.269c0,0,21.077,7.096,24.845,8.35c1.411,8.709,2.133,16.368,2.133,21.768
			C285.303,378.076,276.539,386.683,256,386.683z M232.258,318.948c1.379-5.829,3.005-11.772,4.879-17.559
			c7.661-23.672,15.636-32.493,18.862-32.493c3.226,0,11.201,8.822,18.862,32.493c1.876,5.792,3.504,11.741,4.883,17.574
			c-6.508-2.168-13.461-4.484-15.231-5.074c-3.657-1.665-9.397-2.894-16.809-0.101L232.258,318.948z M300.112,365.366
			c0.263-2.381,0.398-4.868,0.398-7.464c0-3.343-0.22-7.134-0.612-11.197c5.724,4.013,14.387,9.772,16.808,11.039L300.112,365.366z
			 M423.737,319.366l-47.979,24.948c-7.983,4.152-16.958,6.346-25.953,6.346c-11.321,0-22.253-3.362-31.546-9.675
			c-0.105-0.073-9.995-6.956-21.466-15.062c-0.36-1.842-0.739-3.693-1.143-5.549l24.979,16.972
			c8.641,5.871,18.731,8.974,29.177,8.974c8.3,0,16.582-2.025,23.949-5.855c3.726-1.938,5.176-6.528,3.239-10.254
			c-1.936-3.726-6.528-5.176-10.254-3.239c-5.21,2.708-11.065,4.14-16.935,4.14c-7.387,0-14.522-2.194-20.631-6.345l-39.451-26.808
			c-0.132-0.416-14.34-44.269-33.723-44.269c-19.843,0-33.591,43.855-33.723,44.269l-39.451,26.807
			c-6.11,4.151-13.243,6.346-20.632,6.346c-5.869,0-11.724-1.433-16.932-4.14l-47.979-24.949
			c-15.219-7.913-22.878-25.045-18.627-41.664l13.229-51.717c3.739-14.617,16.32-25.613,31.297-27.361
			c33.666-3.889,84.599-9.728,88.964-10.102c5.026,0.032,9.936,1.1,14.599,3.174c2.19,0.973,4.654,0.84,6.681-0.246
			c1.81-0.896,22.035-10.388,45.624,0.23c1.974,0.888,4.233,0.893,6.21,0.014c4.662-2.072,9.57-3.139,14.595-3.171
			c4.365,0.374,55.297,6.212,88.953,10.101c14.987,1.75,27.568,12.746,31.307,27.363l13.23,51.717
			c4.251,16.617-3.408,33.749-18.627,41.663l-25.936,13.486c-3.726,1.938-5.176,6.528-3.238,10.254
			c1.939,3.726,6.528,5.178,10.254,3.238l25.936-13.486c21.524-11.193,32.357-35.423,26.344-58.926l-13.23-51.717
			c-5.288-20.673-23.083-36.224-44.286-38.699c-88.307-10.203-89.935-10.203-90.469-10.203c-6.123,0-12.116,1.076-17.862,3.203
			c-23.82-9.458-44.599-3.204-52.529-0.025c-5.726-2.11-11.698-3.177-17.795-3.177c-0.534,0-2.161,0-90.479,10.205
			c-21.195,2.474-38.988,18.025-44.276,38.698l-13.228,51.716c-6.013,23.502,4.82,47.734,26.344,58.926l47.979,24.949
			c7.366,3.829,15.646,5.854,23.951,5.855c10.447,0,20.536-3.103,29.177-8.975l24.978-16.971c-0.404,1.856-0.783,3.707-1.143,5.549
			c-11.469,8.103-21.355,14.984-21.396,15.013c-9.363,6.362-20.295,9.725-31.618,9.725c-8.997-0.001-17.971-2.196-25.952-6.346
			l-47.979-24.948c-23.324-12.128-35.062-38.385-28.545-63.853l13.229-51.715c5.73-22.401,25.012-39.254,47.969-41.934
			c81.741-9.445,89.771-10.235,90.991-10.235h88.187c1.221,0,9.249,0.79,90.959,10.231c22.981,2.683,42.271,19.537,48.002,41.938
			l13.23,51.717C458.799,280.981,447.06,307.238,423.737,319.366z M496.792,280.679c0,3.075-2.501,5.576-5.576,5.576h-23.912
			c1.931-8.042,2.48-16.483,1.478-24.988h3.319c11.461,0,20.784-9.323,20.784-20.784v-8.224c2.262,0.712,3.906,2.827,3.906,5.32
			V280.679z"/>
	</g>
</g>
<g>
	<g>
		<path d="M318.522,110.11h-14.87c-4.199,0-7.604,3.405-7.604,7.604s3.405,7.604,7.604,7.604h14.87c4.199,0,7.604-3.405,7.604-7.604
			S322.721,110.11,318.522,110.11z"/>
	</g>
</g>
<g>
	<g>
		<path d="M211.906,183.121c-0.963,0-1.939,0.056-2.923,0.17l-84.407,9.851c-10.181,1.188-18.578,8.528-21.119,18.458l-13.23,51.717
			c-2.852,11.15,2.354,22.796,12.566,28.105l47.979,24.949c3.593,1.869,7.514,2.793,11.422,2.793c4.879,0,9.737-1.44,13.918-4.281
			l45.63-31.005c6.262-4.254,10.233-11.139,10.78-18.69l4.027-55.512C237.602,195.171,226.047,183.121,211.906,183.121z
			 M221.382,208.578l-4.027,55.512c-0.213,2.931-1.729,5.559-4.16,7.211l-45.63,31.005c-1.591,1.081-3.447,1.652-5.371,1.652
			c-1.527,0-3.05-0.372-4.406-1.078l-47.979-24.949c-3.961-2.059-5.954-6.519-4.848-10.844l13.23-51.717
			c0.973-3.805,4.248-6.666,8.148-7.121c0,0,85.185-9.92,85.567-9.92c2.648,0,5.117,1.087,6.953,3.061
			C219.914,202.524,221.644,204.967,221.382,208.578z"/>
	</g>
</g>
<g>
	<g>
		<path d="M421.772,263.319l-13.23-51.717c-2.541-9.931-10.938-17.27-21.119-18.458l-84.407-9.851
			c-0.984-0.115-1.96-0.17-2.923-0.17c-14.142,0-25.696,12.05-24.644,26.557l4.027,55.512c0.547,7.55,4.519,14.434,10.78,18.69
			l45.63,31.005c4.181,2.841,9.04,4.281,13.918,4.281c3.907,0,7.829-0.925,11.422-2.793l47.979-24.949
			C419.418,286.114,424.624,274.469,421.772,263.319z M402.191,277.931l-47.979,24.949c-1.356,0.705-2.879,1.078-4.406,1.078
			c-1.923,0-3.781-0.571-5.371-1.652l-45.63-31.005c-2.43-1.652-3.947-4.28-4.159-7.211l-4.027-55.512
			c-0.262-3.611,1.468-6.054,2.523-7.187c1.836-1.974,4.305-3.061,6.953-3.061c0.382,0,85.567,9.92,85.567,9.92
			c3.9,0.455,7.175,3.317,8.148,7.121l13.23,51.717C408.145,271.412,406.152,275.871,402.191,277.931z"/>
	</g>
</g>
<g>
	<g>
		<path d="M398.952,263.001c-1.938-3.725-6.528-5.175-10.254-3.238l-12.132,6.308c-3.726,1.938-5.064,6.472-3.238,10.254
			c3.321,6.88,9.134,3.821,10.254,3.238l12.132-6.308C399.44,271.318,400.89,266.727,398.952,263.001z"/>
	</g>
</g>
<g>
	<g>
		<path d="M367.634,279.285c-1.936-3.726-6.528-5.176-10.254-3.237l-5.658,2.942l-14.803-10.059
			c-3.474-2.361-8.202-1.458-10.562,2.016c-2.36,3.474-1.458,8.202,2.016,10.562l18.558,12.61c1.285,0.873,2.776,1.315,4.274,1.315
			c1.2,0,2.405-0.284,3.507-0.859l9.686-5.037C368.122,287.603,369.572,283.011,367.634,279.285z"/>
	</g>
</g>
<g>
</g>
<g>
</g>
<g>
</g>
<g>
</g>
<g>
</g>
<g>
</g>
<g>
</g>
<g>
</g>
<g>
</g>
<g>
</g>
<g>
</g>
<g>
</g>
<g>
</g>
<g>
</g>
<g>
</g>
</svg>
